<svg width="25" height="25" viewBox="0 0 25 25" fill="none" xmlns="http://www.w3.org/2000/svg">
<path d="M7.77319 14.3896H13.7732V15.8896H7.77319V14.3896ZM7.77319 10.6396H16.7732V12.1396H7.77319V10.6396ZM7.77319 18.1396H11.5232V19.6396H7.77319V18.1396Z" fill="#C6C6C6"/>
<path d="M19.0232 4.63965H16.7732V3.88965C16.7732 3.49182 16.6152 3.11029 16.3339 2.82899C16.0525 2.54768 15.671 2.38965 15.2732 2.38965H9.27319C8.87537 2.38965 8.49384 2.54768 8.21253 2.82899C7.93123 3.11029 7.77319 3.49182 7.77319 3.88965V4.63965H5.52319C5.12537 4.63965 4.74384 4.79768 4.46253 5.07899C4.18123 5.36029 4.02319 5.74182 4.02319 6.13965V21.8896C4.02319 22.2875 4.18123 22.669 4.46253 22.9503C4.74384 23.2316 5.12537 23.3896 5.52319 23.3896H19.0232C19.421 23.3896 19.8025 23.2316 20.0839 22.9503C20.3652 22.669 20.5232 22.2875 20.5232 21.8896V6.13965C20.5232 5.74182 20.3652 5.36029 20.0839 5.07899C19.8025 4.79768 19.421 4.63965 19.0232 4.63965ZM9.27319 3.88965H15.2732V6.88965H9.27319V3.88965ZM19.0232 21.8896H5.52319V6.13965H7.77319V8.38965H16.7732V6.13965H19.0232V21.8896Z" fill="#C6C6C6"/>
</svg>
