<svg width="25" height="25" viewBox="0 0 25 25" fill="none" xmlns="http://www.w3.org/2000/svg">
<path d="M22.3157 12.9497L17.2982 10.7972L15.3932 7.54216L15.3332 7.45216C15.1928 7.27675 15.0147 7.13514 14.8122 7.03778C14.6097 6.94042 14.3879 6.8898 14.1632 6.88966H8.16319C7.91554 6.88888 7.67155 6.94943 7.453 7.0659C7.23445 7.18237 7.04814 7.35115 6.91069 7.55716L4.36819 11.3897H2.52319C2.32428 11.3897 2.13352 11.4687 1.99286 11.6093C1.85221 11.75 1.77319 11.9407 1.77319 12.1397V18.8897C1.77319 19.0886 1.85221 19.2793 1.99286 19.42C2.13352 19.5606 2.32428 19.6397 2.52319 19.6397H4.12819C4.30091 20.2752 4.67794 20.8362 5.20114 21.2362C5.72434 21.6362 6.36462 21.8529 7.02319 21.8529C7.68177 21.8529 8.32205 21.6362 8.84525 21.2362C9.36844 20.8362 9.74548 20.2752 9.91819 19.6397H14.6282C14.8009 20.2752 15.1779 20.8362 15.7011 21.2362C16.2243 21.6362 16.8646 21.8529 17.5232 21.8529C18.1818 21.8529 18.8221 21.6362 19.3452 21.2362C19.8684 20.8362 20.2455 20.2752 20.4182 19.6397H22.0232C22.2221 19.6397 22.4129 19.5606 22.5535 19.42C22.6942 19.2793 22.7732 19.0886 22.7732 18.8897V13.6397C22.7731 13.4924 22.7296 13.3485 22.6483 13.2258C22.5669 13.1031 22.4513 13.0071 22.3157 12.9497ZM7.02319 20.3897C6.72652 20.3897 6.43651 20.3017 6.18984 20.1369C5.94316 19.972 5.75091 19.7378 5.63737 19.4637C5.52384 19.1896 5.49414 18.888 5.55202 18.597C5.60989 18.306 5.75275 18.0388 5.96253 17.829C6.17231 17.6192 6.43959 17.4764 6.73056 17.4185C7.02153 17.3606 7.32313 17.3903 7.59722 17.5038C7.87131 17.6174 8.10558 17.8096 8.2704 18.0563C8.43522 18.303 8.52319 18.593 8.52319 18.8897C8.52319 19.2875 8.36516 19.669 8.08385 19.9503C7.80255 20.2316 7.42102 20.3897 7.02319 20.3897ZM17.5232 20.3897C17.2265 20.3897 16.9365 20.3017 16.6898 20.1369C16.4432 19.972 16.2509 19.7378 16.1374 19.4637C16.0238 19.1896 15.9941 18.888 16.052 18.597C16.1099 18.306 16.2528 18.0388 16.4625 17.829C16.6723 17.6192 16.9396 17.4764 17.2306 17.4185C17.5215 17.3606 17.8231 17.3903 18.0972 17.5038C18.3713 17.6174 18.6056 17.8096 18.7704 18.0563C18.9352 18.303 19.0232 18.593 19.0232 18.8897C19.0232 19.2875 18.8652 19.669 18.5839 19.9503C18.3025 20.2316 17.921 20.3897 17.5232 20.3897ZM21.2732 18.1397H20.4182C20.2455 17.5041 19.8684 16.9431 19.3452 16.5431C18.8221 16.1431 18.1818 15.9264 17.5232 15.9264C16.8646 15.9264 16.2243 16.1431 15.7011 16.5431C15.1779 16.9431 14.8009 17.5041 14.6282 18.1397H9.91819C9.74548 17.5041 9.36844 16.9431 8.84525 16.5431C8.32205 16.1431 7.68177 15.9264 7.02319 15.9264C6.36462 15.9264 5.72434 16.1431 5.20114 16.5431C4.67794 16.9431 4.30091 17.5041 4.12819 18.1397H3.27319V12.8897H4.77319C4.89672 12.889 5.01818 12.8579 5.12678 12.799C5.23538 12.7401 5.32775 12.6553 5.39569 12.5522L8.17819 8.38966H14.1782L16.1507 11.7647C16.2312 11.9049 16.3548 12.0154 16.5032 12.0797L21.2732 14.1347V18.1397Z" fill="#C6C6C6"/>
</svg>
