<svg width="26" height="25" viewBox="0 0 26 25" fill="none" xmlns="http://www.w3.org/2000/svg">
<path fill-rule="evenodd" clip-rule="evenodd" d="M7.06968 5.83582C7.58103 5.51181 8.18222 5.33887 8.79721 5.33887C9.19205 5.33887 9.51214 5.64241 9.51214 6.01684C9.51214 6.39127 9.19205 6.69481 8.79721 6.69481C8.46502 6.69481 8.14028 6.78823 7.86407 6.96325C7.58786 7.13826 7.37258 7.38702 7.24546 7.67806C7.11833 7.96911 7.08507 8.28936 7.14988 8.59833C7.21468 8.9073 7.37465 9.19111 7.60955 9.41387C7.84445 9.63662 8.14372 9.78832 8.46954 9.84978C8.79535 9.91123 9.13306 9.87969 9.43997 9.75914C9.74688 9.63858 10.0092 9.43443 10.1938 9.1725C10.3783 8.91057 10.4768 8.60262 10.4768 8.2876C10.4768 7.91316 10.7969 7.60962 11.1917 7.60962C11.5866 7.60962 11.9067 7.91316 11.9067 8.2876C11.9067 8.8708 11.7243 9.44091 11.3826 9.92582C11.041 10.4107 10.5553 10.7887 9.98715 11.0119C9.41897 11.2351 8.79376 11.2934 8.19058 11.1797C7.58741 11.0659 7.03335 10.7851 6.59849 10.3727C6.16362 9.96028 5.86747 9.43486 5.74749 8.86287C5.62751 8.29087 5.68909 7.69798 5.92444 7.15917C6.15979 6.62036 6.55834 6.15983 7.06968 5.83582Z" fill="#8D98AA"/>
<path fill-rule="evenodd" clip-rule="evenodd" d="M24.331 9.27051C24.7202 9.27051 25.0356 9.5759 25.0356 9.95263V15.6643C25.0356 18.5861 24.4397 20.8089 22.9239 22.2845C21.4071 23.761 19.1212 24.3418 16.1177 24.3418H9.07786C6.07524 24.3418 3.78941 23.7612 2.27244 22.2849C0.756395 20.8095 0.159912 18.5867 0.159912 15.6643V13.3678C0.159912 12.9911 0.475391 12.6857 0.864554 12.6857C1.25372 12.6857 1.5692 12.9911 1.5692 13.3678V15.6643C1.5692 18.4535 2.14711 20.2284 3.2716 21.3228C4.39516 22.4163 6.21597 22.9776 9.07786 22.9776H16.1177C18.9805 22.9776 20.8013 22.416 21.9246 21.3225C23.0489 20.2281 23.6264 18.4531 23.6264 15.6643V9.95263C23.6264 9.5759 23.9418 9.27051 24.331 9.27051Z" fill="#8D98AA"/>
<path fill-rule="evenodd" clip-rule="evenodd" d="M2.30176 2.76612C3.83891 1.31991 6.15517 0.750977 9.19993 0.750977H13.9601C14.3526 0.750977 14.6708 1.05031 14.6708 1.41956C14.6708 1.78881 14.3526 2.08814 13.9601 2.08814H9.19993C6.2954 2.08814 4.44696 2.63886 3.30673 3.71164C2.1665 4.78442 1.58115 6.52351 1.58115 9.25622C1.58115 9.62547 1.263 9.9248 0.870531 9.9248C0.478067 9.9248 0.159912 9.62547 0.159912 9.25622C0.159912 6.39157 0.764615 4.21234 2.30176 2.76612Z" fill="#8D98AA"/>
<path fill-rule="evenodd" clip-rule="evenodd" d="M16.0527 4.68359C16.0527 4.3217 16.3839 4.02832 16.7924 4.02832H23.605C24.0135 4.02832 24.3446 4.3217 24.3446 4.68359C24.3446 5.04549 24.0135 5.33887 23.605 5.33887H16.7924C16.3839 5.33887 16.0527 5.04549 16.0527 4.68359Z" fill="#8D98AA"/>
<path fill-rule="evenodd" clip-rule="evenodd" d="M20.1986 0.750977C20.5802 0.750977 20.8896 1.06501 20.8896 1.45239V7.91285C20.8896 8.30023 20.5802 8.61426 20.1986 8.61426C19.8169 8.61426 19.5076 8.30023 19.5076 7.91285V1.45239C19.5076 1.06501 19.8169 0.750977 20.1986 0.750977Z" fill="#8D98AA"/>
<path fill-rule="evenodd" clip-rule="evenodd" d="M19.5419 13.6444L14.6515 17.6589L14.6386 17.6693C14.044 18.1342 13.298 18.3883 12.5281 18.3883C11.7582 18.3883 11.0122 18.1342 10.4177 17.6693C10.4113 17.6643 10.405 17.6592 10.3987 17.654L10.0212 17.337C9.7051 17.0951 9.31681 16.9538 8.91131 16.9333C8.5033 16.9126 8.09893 17.0152 7.75617 17.2264L1.95449 20.9502C1.63065 21.158 1.19082 21.077 0.972107 20.7693C0.753392 20.4615 0.83861 20.0436 1.16245 19.8357L6.97865 16.1026C7.57383 15.7337 8.2771 15.5544 8.98668 15.5903C9.69625 15.6263 10.3754 15.8758 10.9259 16.3028C10.9331 16.3083 10.9401 16.314 10.947 16.3198L11.3256 16.6377C11.6654 16.9001 12.09 17.0435 12.5281 17.0435C12.9674 17.0435 13.3932 16.8993 13.7334 16.6355L18.6238 12.621L18.6368 12.6106C19.2313 12.1457 19.9773 11.8916 20.7472 11.8916C21.5171 11.8916 22.2631 12.1457 22.8577 12.6106L22.8707 12.621L24.7905 14.1972C25.0863 14.44 25.1189 14.8646 24.8634 15.1456C24.608 15.4266 24.1611 15.4576 23.8654 15.2149L21.9525 13.6444C21.6122 13.3806 21.1865 13.2364 20.7472 13.2364C20.3079 13.2364 19.8822 13.3806 19.5419 13.6444Z" fill="#8D98AA"/>
</svg>
